<svg width="200" height="200" viewBox="0 0 200 200" fill="none" xmlns="http://www.w3.org/2000/svg">
<path d="M92 9.2373C96.9504 6.37928 103.05 6.37928 108 9.2373L174.603 47.6904C179.553 50.5485 182.602 55.8307 182.603 61.5469V138.453C182.602 144.169 179.553 149.451 174.603 152.31L108 190.763C103.05 193.621 96.9504 193.621 92 190.763L25.3975 152.31C20.4471 149.451 17.3975 144.169 17.3975 138.453V61.5469C17.3975 55.8307 20.4471 50.5485 25.3975 47.6904L92 9.2373Z" fill="#F4F7FF" stroke="#02274B" stroke-width="8"/>
<path d="M92 66.2373C96.9504 63.3793 103.05 63.3793 108 66.2373L148.622 89.6904C153.572 92.5486 156.622 97.8307 156.622 103.547V150.453C156.622 156.169 153.572 161.451 148.622 164.31L108 187.763C103.05 190.621 96.9504 190.621 92 187.763L51.3779 164.31C46.4276 161.451 43.378 156.169 43.3779 150.453V103.547C43.378 97.8307 46.4276 92.5486 51.3779 89.6904L92 66.2373Z" stroke="#02274B" stroke-width="8"/>
<path d="M97 145.732C98.8564 144.66 101.144 144.66 103 145.732L116.053 153.268C117.909 154.34 119.053 156.321 119.053 158.464V173.536C119.053 175.679 117.909 177.66 116.053 178.732L103 186.268C101.144 187.34 98.8564 187.34 97 186.268L83.9474 178.732C82.091 177.66 80.9474 175.679 80.9474 173.536V158.464C80.9474 156.321 82.091 154.34 83.9474 153.268L97 145.732Z" fill="#05AE9A"/>
<path d="M97 135.732C98.8564 134.66 101.144 134.66 103 135.732L116.053 143.268C117.909 144.34 119.053 146.321 119.053 148.464V163.536C119.053 165.679 117.909 167.66 116.053 168.732L103 176.268C101.144 177.34 98.8564 177.34 97 176.268L83.9474 168.732C82.091 167.66 80.9474 165.679 80.9474 163.536V148.464C80.9474 146.321 82.091 144.34 83.9474 143.268L97 135.732Z" fill="#05AE9A"/>
<path d="M97 125.732C98.8564 124.66 101.144 124.66 103 125.732L116.053 133.268C117.909 134.34 119.053 136.321 119.053 138.464V153.536C119.053 155.679 117.909 157.66 116.053 158.732L103 166.268C101.144 167.34 98.8564 167.34 97 166.268L83.9474 158.732C82.091 157.66 80.9474 155.679 80.9474 153.536V138.464C80.9474 136.321 82.091 134.34 83.9474 133.268L97 125.732Z" fill="#05AE9A"/>
</svg>
