<svg width="714" height="200" viewBox="0 0 714 200" fill="none" xmlns="http://www.w3.org/2000/svg">
<path d="M92 9.2373C96.9503 6.37928 103.05 6.37928 108 9.2373L174.603 47.6904C179.553 50.5485 182.602 55.8307 182.603 61.5469V138.453C182.602 143.991 179.741 149.12 175.062 152.034L174.603 152.31L108 190.763C103.204 193.531 97.3307 193.618 92.4678 191.022L92 190.763L25.3975 152.31C20.4471 149.451 17.3975 144.169 17.3975 138.453V61.5469C17.3975 55.8307 20.4471 50.5485 25.3975 47.6904L92 9.2373Z" stroke="#02274B" stroke-width="8"/>
<path d="M92 66.2373C96.7957 63.4686 102.669 63.3828 107.532 65.9785L108 66.2373L148.622 89.6904C153.572 92.5486 156.622 97.8307 156.622 103.547V150.453C156.622 156.169 153.572 161.451 148.622 164.31L108 187.763C103.204 190.531 97.3307 190.618 92.4678 188.022L92 187.763L51.3779 164.31C46.4276 161.451 43.378 156.169 43.3779 150.453V103.547C43.378 97.8307 46.4276 92.5486 51.3779 89.6904L92 66.2373Z" stroke="#02274B" stroke-width="8"/>
<path d="M97 145.732C98.8564 144.66 101.144 144.66 103 145.732L116.053 153.268C117.909 154.34 119.053 156.321 119.053 158.464V173.536C119.053 175.679 117.909 177.66 116.053 178.732L103 186.268C101.144 187.34 98.8564 187.34 97 186.268L83.9474 178.732C82.091 177.66 80.9474 175.679 80.9474 173.536V158.464C80.9474 156.321 82.091 154.34 83.9474 153.268L97 145.732Z" fill="#05AE9A"/>
<path d="M97 135.732C98.8564 134.66 101.144 134.66 103 135.732L116.053 143.268C117.909 144.34 119.053 146.321 119.053 148.464V163.536C119.053 165.679 117.909 167.66 116.053 168.732L103 176.268C101.144 177.34 98.8564 177.34 97 176.268L83.9474 168.732C82.091 167.66 80.9474 165.679 80.9474 163.536V148.464C80.9474 146.321 82.091 144.34 83.9474 143.268L97 135.732Z" fill="#05AE9A"/>
<path d="M97 125.732C98.8564 124.66 101.144 124.66 103 125.732L116.053 133.268C117.909 134.34 119.053 136.321 119.053 138.464V153.536C119.053 155.679 117.909 157.66 116.053 158.732L103 166.268C101.144 167.34 98.8564 167.34 97 166.268L83.9474 158.732C82.091 157.66 80.9474 155.679 80.9474 153.536V138.464C80.9474 136.321 82.091 134.34 83.9474 133.268L97 125.732Z" fill="#05AE9A"/>
<path d="M207.6 129.5V80.2H217.7V86H219.3C220.233 84.2667 221.733 82.7333 223.8 81.4C225.867 80.0667 228.667 79.4 232.2 79.4C235.867 79.4 238.8 80.1667 241 81.7C243.267 83.1667 244.967 85.0667 246.1 87.4H247.7C248.833 85.1333 250.467 83.2333 252.6 81.7C254.8 80.1667 257.9 79.4 261.9 79.4C265.1 79.4 267.933 80.0667 270.4 81.4C272.867 82.6667 274.833 84.6 276.3 87.2C277.767 89.7333 278.5 92.9 278.5 96.7V129.5H268.2V97.5C268.2 94.5 267.367 92.2 265.7 90.6C264.1 88.9333 261.8 88.1 258.8 88.1C255.6 88.1 253.033 89.1333 251.1 91.2C249.167 93.2667 248.2 96.2333 248.2 100.1V129.5H237.9V97.5C237.9 94.5 237.067 92.2 235.4 90.6C233.8 88.9333 231.5 88.1 228.5 88.1C225.3 88.1 222.733 89.1333 220.8 91.2C218.867 93.2667 217.9 96.2333 217.9 100.1V129.5H207.6ZM315.942 130.9C310.942 130.9 306.576 129.867 302.842 127.8C299.109 125.667 296.176 122.7 294.042 118.9C291.976 115.033 290.942 110.567 290.942 105.5V104.3C290.942 99.1667 291.976 94.7 294.042 90.9C296.109 87.0333 298.976 84.0667 302.642 82C306.376 79.8667 310.676 78.8 315.542 78.8C320.276 78.8 324.409 79.8667 327.942 82C331.542 84.0667 334.342 86.9667 336.342 90.7C338.342 94.4333 339.342 98.8 339.342 103.8V107.7H301.442C301.576 112.033 303.009 115.5 305.742 118.1C308.542 120.633 312.009 121.9 316.142 121.9C320.009 121.9 322.909 121.033 324.842 119.3C326.842 117.567 328.376 115.567 329.442 113.3L337.942 117.7C337.009 119.567 335.642 121.533 333.842 123.6C332.109 125.667 329.809 127.4 326.942 128.8C324.076 130.2 320.409 130.9 315.942 130.9ZM301.542 99.8H328.842C328.576 96.0667 327.242 93.1667 324.842 91.1C322.442 88.9667 319.309 87.9 315.442 87.9C311.576 87.9 308.409 88.9667 305.942 91.1C303.542 93.1667 302.076 96.0667 301.542 99.8ZM370.641 130.4C366.907 130.4 363.574 129.567 360.641 127.9C357.707 126.233 355.407 123.867 353.741 120.8C352.074 117.733 351.241 114.067 351.241 109.8V80.2H361.541V109.1C361.541 113.367 362.607 116.533 364.741 118.6C366.874 120.6 369.841 121.6 373.641 121.6C377.841 121.6 381.207 120.2 383.741 117.4C386.341 114.533 387.641 110.433 387.641 105.1V80.2H397.941V129.5H387.841V122.1H386.241C385.307 124.1 383.641 126 381.241 127.8C378.841 129.533 375.307 130.4 370.641 130.4ZM413.166 129.5V80.2H423.466V129.5H413.166ZM418.366 73.5C416.366 73.5 414.666 72.8667 413.266 71.6C411.933 70.2667 411.266 68.5667 411.266 66.5C411.266 64.4333 411.933 62.7667 413.266 61.5C414.666 60.1667 416.366 59.5 418.366 59.5C420.433 59.5 422.133 60.1667 423.466 61.5C424.8 62.7667 425.466 64.4333 425.466 66.5C425.466 68.5667 424.8 70.2667 423.466 71.6C422.133 72.8667 420.433 73.5 418.366 73.5ZM438.752 129.5V80.2H448.852V86H450.452C451.386 84.2667 452.886 82.7333 454.952 81.4C457.019 80.0667 459.819 79.4 463.352 79.4C467.019 79.4 469.952 80.1667 472.152 81.7C474.419 83.1667 476.119 85.0667 477.252 87.4H478.852C479.986 85.1333 481.619 83.2333 483.752 81.7C485.952 80.1667 489.052 79.4 493.052 79.4C496.252 79.4 499.086 80.0667 501.552 81.4C504.019 82.6667 505.986 84.6 507.452 87.2C508.919 89.7333 509.652 92.9 509.652 96.7V129.5H499.352V97.5C499.352 94.5 498.519 92.2 496.852 90.6C495.252 88.9333 492.952 88.1 489.952 88.1C486.752 88.1 484.186 89.1333 482.252 91.2C480.319 93.2667 479.352 96.2333 479.352 100.1V129.5H469.052V97.5C469.052 94.5 468.219 92.2 466.552 90.6C464.952 88.9333 462.652 88.1 459.652 88.1C456.452 88.1 453.886 89.1333 451.952 91.2C450.019 93.2667 449.052 96.2333 449.052 100.1V129.5H438.752ZM547.595 130.9C542.661 130.9 538.261 129.9 534.395 127.9C530.595 125.833 527.595 122.9 525.395 119.1C523.195 115.3 522.095 110.8 522.095 105.6V104.1C522.095 98.9 523.195 94.4333 525.395 90.7C527.595 86.9 530.595 83.9667 534.395 81.9C538.261 79.8333 542.661 78.8 547.595 78.8C552.528 78.8 556.928 79.8333 560.795 81.9C564.661 83.9667 567.695 86.9 569.895 90.7C572.095 94.4333 573.195 98.9 573.195 104.1V105.6C573.195 110.8 572.095 115.3 569.895 119.1C567.695 122.9 564.661 125.833 560.795 127.9C556.928 129.9 552.528 130.9 547.595 130.9ZM547.595 121.7C552.128 121.7 555.795 120.267 558.595 117.4C561.461 114.467 562.895 110.433 562.895 105.3V104.4C562.895 99.2667 561.495 95.2667 558.695 92.4C555.895 89.4667 552.195 88 547.595 88C543.128 88 539.461 89.4667 536.595 92.4C533.795 95.2667 532.395 99.2667 532.395 104.4V105.3C532.395 110.433 533.795 114.467 536.595 117.4C539.461 120.267 543.128 121.7 547.595 121.7ZM541.195 74.2L548.695 59.9H560.595L550.495 74.2H541.195ZM595.66 129.5L579.06 80.2H589.96L603.06 121.9H604.66L617.76 80.2H628.66L612.06 129.5H595.66ZM659.497 130.9C654.497 130.9 650.13 129.867 646.397 127.8C642.664 125.667 639.73 122.7 637.597 118.9C635.53 115.033 634.497 110.567 634.497 105.5V104.3C634.497 99.1667 635.53 94.7 637.597 90.9C639.664 87.0333 642.53 84.0667 646.197 82C649.93 79.8667 654.23 78.8 659.097 78.8C663.83 78.8 667.964 79.8667 671.497 82C675.097 84.0667 677.897 86.9667 679.897 90.7C681.897 94.4333 682.897 98.8 682.897 103.8V107.7H644.997C645.13 112.033 646.564 115.5 649.297 118.1C652.097 120.633 655.564 121.9 659.697 121.9C663.564 121.9 666.464 121.033 668.397 119.3C670.397 117.567 671.93 115.567 672.997 113.3L681.497 117.7C680.564 119.567 679.197 121.533 677.397 123.6C675.664 125.667 673.364 127.4 670.497 128.8C667.63 130.2 663.964 130.9 659.497 130.9ZM645.097 99.8H672.397C672.13 96.0667 670.797 93.1667 668.397 91.1C665.997 88.9667 662.864 87.9 658.997 87.9C655.13 87.9 651.964 88.9667 649.497 91.1C647.097 93.1667 645.63 96.0667 645.097 99.8ZM695.295 129.5V59.5H705.595V129.5H695.295Z" fill="#02274B"/>
<path d="M626.161 158.06C625.227 158.06 624.441 157.753 623.801 157.14C623.187 156.527 622.881 155.74 622.881 154.78C622.881 153.82 623.187 153.047 623.801 152.46C624.441 151.847 625.227 151.54 626.161 151.54C627.094 151.54 627.867 151.847 628.481 152.46C629.121 153.073 629.441 153.847 629.441 154.78C629.441 155.74 629.121 156.527 628.481 157.14C627.867 157.753 627.094 158.06 626.161 158.06ZM643.622 158.06C641.729 158.06 640.009 157.66 638.462 156.86C636.942 156.06 635.729 154.9 634.822 153.38C633.942 151.86 633.502 150.033 633.502 147.9V147.38C633.502 145.247 633.942 143.433 634.822 141.94C635.729 140.42 636.942 139.26 638.462 138.46C640.009 137.633 641.729 137.22 643.622 137.22C645.515 137.22 647.129 137.567 648.462 138.26C649.795 138.953 650.862 139.873 651.662 141.02C652.489 142.167 653.022 143.433 653.262 144.82L649.262 145.66C649.129 144.78 648.849 143.98 648.422 143.26C647.995 142.54 647.395 141.967 646.622 141.54C645.849 141.113 644.875 140.9 643.702 140.9C642.555 140.9 641.515 141.167 640.582 141.7C639.675 142.207 638.955 142.953 638.422 143.94C637.889 144.9 637.622 146.073 637.622 147.46V147.82C637.622 149.207 637.889 150.393 638.422 151.38C638.955 152.367 639.675 153.113 640.582 153.62C641.515 154.127 642.555 154.38 643.702 154.38C645.435 154.38 646.755 153.94 647.662 153.06C648.569 152.153 649.142 151.007 649.382 149.62L653.382 150.54C653.062 151.9 652.489 153.153 651.662 154.3C650.862 155.447 649.795 156.367 648.462 157.06C647.129 157.727 645.515 158.06 643.622 158.06ZM667.374 158.06C665.4 158.06 663.64 157.66 662.094 156.86C660.574 156.033 659.374 154.86 658.494 153.34C657.614 151.82 657.174 150.02 657.174 147.94V147.34C657.174 145.26 657.614 143.473 658.494 141.98C659.374 140.46 660.574 139.287 662.094 138.46C663.64 137.633 665.4 137.22 667.374 137.22C669.347 137.22 671.107 137.633 672.654 138.46C674.2 139.287 675.414 140.46 676.294 141.98C677.174 143.473 677.614 145.26 677.614 147.34V147.94C677.614 150.02 677.174 151.82 676.294 153.34C675.414 154.86 674.2 156.033 672.654 156.86C671.107 157.66 669.347 158.06 667.374 158.06ZM667.374 154.38C669.187 154.38 670.654 153.807 671.774 152.66C672.92 151.487 673.494 149.873 673.494 147.82V147.46C673.494 145.407 672.934 143.807 671.814 142.66C670.694 141.487 669.214 140.9 667.374 140.9C665.587 140.9 664.12 141.487 662.974 142.66C661.854 143.807 661.294 145.407 661.294 147.46V147.82C661.294 149.873 661.854 151.487 662.974 152.66C664.12 153.807 665.587 154.38 667.374 154.38ZM682.743 157.5V137.78H686.783V140.1H687.423C687.796 139.407 688.396 138.793 689.223 138.26C690.05 137.727 691.17 137.46 692.583 137.46C694.05 137.46 695.223 137.767 696.103 138.38C697.01 138.967 697.69 139.727 698.143 140.66H698.783C699.236 139.753 699.89 138.993 700.743 138.38C701.623 137.767 702.863 137.46 704.463 137.46C705.743 137.46 706.876 137.727 707.863 138.26C708.85 138.767 709.636 139.54 710.223 140.58C710.81 141.593 711.103 142.86 711.103 144.38V157.5H706.983V144.7C706.983 143.5 706.65 142.58 705.983 141.94C705.343 141.273 704.423 140.94 703.223 140.94C701.943 140.94 700.916 141.353 700.143 142.18C699.37 143.007 698.983 144.193 698.983 145.74V157.5H694.863V144.7C694.863 143.5 694.53 142.58 693.863 141.94C693.223 141.273 692.303 140.94 691.103 140.94C689.823 140.94 688.796 141.353 688.023 142.18C687.25 143.007 686.863 144.193 686.863 145.74V157.5H682.743Z" fill="#05AE9A"/>
</svg>
